<svg width="20" height="20" viewBox="0 0 20 20" fill="none" xmlns="http://www.w3.org/2000/svg">
    <path fill-rule="evenodd" clip-rule="evenodd" d="M2.8205 8.20508C3.24533 8.20508 3.58973 8.54947 3.58973 8.97431V18.4615H16.4102V8.97431C16.4102 8.54947 16.7546 8.20508 17.1795 8.20508C17.6043 8.20508 17.9487 8.54947 17.9487 8.97431V18.6153C17.9487 19.3801 17.3288 19.9999 16.5641 19.9999H3.43588C2.67121 19.9999 2.05127 19.3801 2.05127 18.6153V8.97431C2.05127 8.54947 2.39567 8.20508 2.8205 8.20508Z" fill="#C9505F"/>
    <path fill-rule="evenodd" clip-rule="evenodd" d="M7.94867 8.20508C8.37351 8.20508 8.7179 8.54947 8.7179 8.97431V15.1282C8.7179 15.553 8.37351 15.8974 7.94867 15.8974C7.52384 15.8974 7.17944 15.553 7.17944 15.1282V8.97431C7.17944 8.54947 7.52384 8.20508 7.94867 8.20508Z" fill="#C9505F"/>
    <path fill-rule="evenodd" clip-rule="evenodd" d="M12.0515 8.20508C12.4763 8.20508 12.8207 8.54947 12.8207 8.97431V15.1282C12.8207 15.553 12.4763 15.8974 12.0515 15.8974C11.6266 15.8974 11.2822 15.553 11.2822 15.1282V8.97431C11.2822 8.54947 11.6266 8.20508 12.0515 8.20508Z" fill="#C9505F"/>
    <path fill-rule="evenodd" clip-rule="evenodd" d="M6.66667 1.53846V4.10256H13.3333V1.53846H6.66667ZM14.8718 4.10256V1.38462C14.8718 0.619938 14.2519 0 13.4872 0H6.51282C5.74812 0 5.12821 0.619913 5.12821 1.38462V4.10256H0.769231C0.344396 4.10256 0 4.44696 0 4.87179C0 5.29663 0.344396 5.64103 0.769231 5.64103H19.2308C19.6556 5.64103 20 5.29663 20 4.87179C20 4.44696 19.6556 4.10256 19.2308 4.10256H14.8718Z" fill="#C9505F"/>
</svg>
