<svg width="56" height="56" viewBox="0 0 56 56" fill="none" xmlns="http://www.w3.org/2000/svg">
    <path d="M41.7502 13L40.2085 14.5417" stroke="#5B56E6" stroke-width="2" stroke-linecap="round" stroke-linejoin="round"/>
    <path d="M14 13L15.5417 14.5417" stroke="#5B56E6" stroke-width="2" stroke-linecap="round" stroke-linejoin="round"/>
    <path d="M41.7502 34.5834L40.2085 33.0417" stroke="#5B56E6" stroke-width="2" stroke-linecap="round" stroke-linejoin="round"/>
    <path d="M14 34.5834L15.5417 33.0417" stroke="#5B56E6" stroke-width="2" stroke-linecap="round" stroke-linejoin="round"/>
    <path d="M23.25 37.6665H32.5" stroke="#5B56E6" stroke-width="2" stroke-linecap="round" stroke-linejoin="round"/>
    <path d="M24.7915 42.2917H30.9582" stroke="#5B56E6" stroke-width="2" stroke-linecap="round" stroke-linejoin="round"/>
    <path d="M27.8747 14.5415C21.7079 14.5415 18.5508 17.5482 18.6248 22.2498C18.6609 24.5421 19.3954 26.104 20.9373 27.6457C22.4792 29.1873 23.25 29.9582 23.2498 33.0415H32.4997C32.5 29.9583 33.2709 29.1873 34.8121 27.6458C36.3536 26.1042 37.0888 24.5421 37.1247 22.2498C37.1987 17.5482 34.0417 14.5415 27.8747 14.5415Z" stroke="#5B56E6" stroke-width="2" stroke-linecap="round" stroke-linejoin="round"/>
    <rect width="55.5" height="56" rx="15" fill="#50C2C9" fill-opacity="0.4"/>
</svg>
