<svg width="56" height="56" viewBox="0 0 56 56" fill="none" xmlns="http://www.w3.org/2000/svg">
    <path d="M34.9675 13C28.1576 13 22.5193 17.6864 20.9083 23.9838H13.9153L13 27.645H20.3591C20.3591 28.9264 20.6154 30.1347 20.9449 31.3063H13.7323L13.0366 34.9675H22.4094C24.9723 39.3244 29.6221 42.29 35.0041 42.29C37.6768 42.29 40.1665 41.5211 42.3266 40.2397V35.773C40.3862 37.5304 37.8599 38.6287 35.0041 38.6287C31.7456 38.6287 28.8898 37.2009 26.8761 34.9675H35.0041L35.5899 31.3063H24.716C24.3133 30.1347 24.0204 28.9631 24.0204 27.645H36.2489L36.8347 23.9838H24.716C26.2171 19.7367 30.2445 16.6613 35.0041 16.6613C37.4205 16.6613 39.6173 17.4301 41.4113 18.7115L41.9971 14.8306C39.9102 13.6956 37.567 13 35.0041 13H34.9675Z" fill="#FF51A8"/>
    <rect width="55.5" height="56" rx="15" fill="#FAECF3" fill-opacity="0.49"/>
</svg>
