<svg width="22" height="20" viewBox="0 0 22 20" fill="none" xmlns="http://www.w3.org/2000/svg">
    <path fill-rule="evenodd" clip-rule="evenodd" d="M3 2C2.44771 2 2 2.44771 2 3V17C2 17.5523 2.44771 18 3 18H19C19.5523 18 20 17.5523 20 17V3C20 2.44771 19.5523 2 19 2H3ZM0 3C0 1.34315 1.34315 0 3 0H19C20.6569 0 22 1.34315 22 3V17C22 18.6569 20.6569 20 19 20H3C1.34315 20 0 18.6569 0 17V3Z" fill="#50C2C9"/>
    <path fill-rule="evenodd" clip-rule="evenodd" d="M5 11H1V9H5V11Z" fill="#50C2C9"/>
    <path fill-rule="evenodd" clip-rule="evenodd" d="M4 19V1H6V19H4Z" fill="#50C2C9"/>
    <path fill-rule="evenodd" clip-rule="evenodd" d="M15.2593 8.84923C15.6187 9.26855 15.5701 9.89985 15.1508 10.2593L11.6508 13.2593C11.2315 13.6187 10.6002 13.5701 10.2408 13.1508C9.88134 12.7315 9.9299 12.1002 10.3492 11.7408L13.8492 8.74076C14.2686 8.38134 14.8999 8.4299 15.2593 8.84923Z" fill="#50C2C9"/>
    <path fill-rule="evenodd" clip-rule="evenodd" d="M16.679 7.25553C17.0895 7.625 17.1227 8.2573 16.7533 8.66779L16.7433 8.6789C16.3738 9.08939 15.7415 9.12264 15.331 8.75316C14.9205 8.38368 14.8873 7.75139 15.2567 7.3409L15.2667 7.32979C15.6362 6.9193 16.2685 6.88605 16.679 7.25553Z" fill="#50C2C9"/>
</svg>
