<svg width="56" height="56" viewBox="0 0 56 56" fill="none" xmlns="http://www.w3.org/2000/svg">
<rect width="55.5" height="56" rx="15" fill="#50C2C9" fill-opacity="0.19"/>
<path d="M13 27.645C13 35.7331 19.5568 42.29 27.645 42.29C35.7331 42.29 42.29 35.7331 42.29 27.645C42.29 19.5568 35.7331 13 27.645 13C19.5568 13 13 19.5568 13 27.645Z" stroke="#6B51FF" stroke-width="2" stroke-linecap="round" stroke-linejoin="round"/>
<path d="M29.1099 13.0723C29.1099 13.0723 33.5034 18.8579 33.5034 27.6449C33.5034 36.4319 29.1099 42.2177 29.1099 42.2177" stroke="#6B51FF" stroke-width="2" stroke-linecap="round" stroke-linejoin="round"/>
<path d="M26.1806 42.2177C26.1806 42.2177 21.7871 36.4319 21.7871 27.6449C21.7871 18.8579 26.1806 13.0723 26.1806 13.0723" stroke="#6B51FF" stroke-width="2" stroke-linecap="round" stroke-linejoin="round"/>
<path d="M13.9219 32.7708H41.3677" stroke="#6B51FF" stroke-width="2" stroke-linecap="round" stroke-linejoin="round"/>
<path d="M13.9219 22.5193H41.3677" stroke="#6B51FF" stroke-width="2" stroke-linecap="round" stroke-linejoin="round"/>
</svg>
